<svg xmlns="http://www.w3.org/2000/svg" viewBox="0 0 484.48 414.45"><path fill="#fff" d="M22.237 26.495h195.399v47.311H22.237V26.495Zm-7.57 55.828h455.616v312.26H14.667V82.323Z"/><path d="M469.337 67.183h-210.54L190.195 0H0v399.315c0 8.515 6.624 15.139 15.139 15.139h454.198c8.515 0 15.14-6.624 15.14-15.139V82.323c0-8.517-6.625-15.14-15.14-15.14ZM30.281 30.28h147.613l37.849 37.376H30.281V30.28Zm423.916 353.895H30.281V97.463h423.916v286.712Z" style="fill:#3c790a"/><path d="M224.738 126.448c9.779 0 17.762 7.978 17.762 17.762 0 9.781-7.983 17.771-17.762 17.771-9.788 0-17.766-7.99-17.766-17.771 0-9.784 7.978-17.762 17.766-17.762M170.95 238.477l37.263-24.84c1.721-7.276 8.865-39.604 23.204-47.083 14.192-9.402 66.542 29.175 66.845 29.487v56.254l-11.358-1.971-4.444-44.903c-4.27-.868-8.546-1.724-12.817-2.581 9.341 24.159 12.777 47.443 7.394 62.774l22.701 92.775-15.304 10.845-33.047-85.855-15.303 16.285-21.218 64.637-20.233-7.399 18.256-68.095 21.222-37.988-8.133-28.05-8.642 11.271-40.468 13.329-5.918-8.892" style="stroke:none;fill-rule:evenodd;fill-opacity:1;fill:#3c790a"/></svg>